# xmcd
#
# Track frame offsets:
#	150
#	16005
#	30477
#	45120
#	59317
#	77655
#	95820
#	110582
#	129840
#	146600
#	161995
#	179155
#	193207
#	207142
#	223652
#	239300
#	257700
#	273630
#	291112
#	308085
#	325722
#
# Disc length: 4558 seconds
# Revision: 2
# Processed by: cddbd v1.5.2PL0 Copyright (c) Steve Scherf et al.
# Submitted via: dBpowerAMP V12.0
#
DISCID=3111cc15
DTITLE=Various Artist - Ultimate Collection
DYEAR=1981
DGENRE=Country
TTITLE0=Steve Wariner - All Roads Lead To You
TTITLE1=Steve Wariner - Midnight Fire
TTITLE2=Steve Wariner - Lonely Women Make Good Lovers
TTITLE3=Steve Wariner - What I Didn't Do
TTITLE4=Steve Wariner - Some Fools Never Learn
TTITLE5=Steve Wariner - You Can Dream Of Me
TTITLE6=Steve Wariner - Life's Highway
TTITLE7=Steve Wariner - Starting Over Again
TTITLE8=Steve Wariner - Small Town Girl
TTITLE9=Nicolette Larson (Steve Wariner guest vocal) - That's How You Know When Love's Right
TTITLE10=Steve Wariner - The Weekend
TTITLE11=Glen Campbell with Steve Wariner - The Hand That Rocks The Cradle
TTITLE12=Steve Wariner - Lynda
TTITLE13=Steve Wariner - Baby I'm Yours
TTITLE14=Steve Wariner - I Should Be With You
TTITLE15=Steve Wariner - Hold On (A Little Longer)
TTITLE16=Steve Wariner - Where Did I Go Wrong
TTITLE17=Steve Wariner - I Got Dreams
TTITLE18=Steve Wariner - When I Could Come Home To You
TTITLE19=Steve Wariner - Leave Him Out Of This
TTITLE20=Steve Wariner - The Tips Of My Fingers
EXTD=
EXTT0=
EXTT1=
EXTT2=
EXTT3=
EXTT4=
EXTT5=
EXTT6=
EXTT7=
EXTT8=
EXTT9=
EXTT10=
EXTT11=
EXTT12=
EXTT13=
EXTT14=
EXTT15=
EXTT16=
EXTT17=
EXTT18=
EXTT19=
EXTT20=
PLAYORDER=
